# xmcd
#
# Track frame offsets:
#	150
#	20630
#	33417
#	48077
#	58777
#	73127
#	96137
#	118922
#	135180
#	155152
#	172812
#	189847
#
# Disc length: 2811 seconds
#
# Revision: 0
# Processed by: cddbd v1.5.1PL0 Copyright (c) Steve Scherf et al.
# Submitted via: EasyCDDAExtractor 8.2.1.1
#
DISCID=9d0af90c
DTITLE=Various Artist - 100% Romance
DYEAR=1997
DGENRE=Romantic
TTITLE0=Gladys Knight and The Pips - Midnight Train To Georgia
TTITLE1=Ben E. King - Don't Play That Song
TTITLE2=Percy Sledge - Warm And Tender Love
TTITLE3=Fats Domino - Blueberry Hill
TTITLE4=Nat King Cole - Unforgettable
TTITLE5=T'Pau - China In Your Hand
TTITLE6=Ray Charles and Dee Dee Bridgewater - Precious Thing
TTITLE7=Pat Benatar - We Belong
TTITLE8=Leo Sayer - Orchard Road
TTITLE9=Jimmy Nail - Love Don't Live Here Anymore
TTITLE10=Brook Benton - Rainy Night In Georgia
TTITLE11=Shirley Bassey - Killing Me Softly With His Song
EXTD=
EXTT0=
EXTT1=
EXTT2=
EXTT3=
EXTT4=
EXTT5=
EXTT6=
EXTT7=
EXTT8=
EXTT9=
EXTT10=
EXTT11=
PLAYORDER=
